#!OML:ASF H:\Punching\Project 1\Capture day 1\Session 1\female.ASF
:FULLY-SPECIFIED
:DEGREES
1278
root -1.17912 11.082 4.88011 15.173 1.17982 1.11216
lowerback 23.24 -0.772029 4.51123
upperback 0.979943 0.442157 2.09261
thorax -11.9531 0.0239883 -0.380794
lowerneck -11.0069 3.1552 11.6789
upperneck 15.7056 3.20039 -5.92575
head 6.90124 1.73169 -3.5477
rclavicle 1.59028e-015 -6.36111e-015
rhumerus 25.0429 24.8039 -77.6166
rradius 136.112
rwrist -44.2074
rhand -16.8352 -4.32974
rfingers 7.12502
rthumb 9.39433 -34.1004
lclavicle 1.59028e-015 -6.36111e-015
lhumerus 5.87674 -39.9225 87.569
lradius 131.894
lwrist 14.082
lhand -8.90533 32.8214
lfingers 7.12502
lthumb 17.0376 62.0943
rfemur -84.9575 -3.43859 9.26497
rtibia 97.1882
rfoot -24.3752 -4.03858
rtoes -9.80314
lfemur -45.7524 2.60242 7.31326
ltibia 102.548
lfoot -26.8562 -15.6278
ltoes -44.1322
1279
root -1.15185 11.0873 4.88262 15.3648 -0.149794 0.504119
lowerback 23.1045 -0.919691 4.43396
upperback 1.03625 0.211243 2.06153
thorax -11.8223 -0.077431 -0.297569
lowerneck -10.7147 3.856 12.4611
upperneck 15.5999 4.13776 -6.4531
head 6.93351 2.18514 -3.75918
rclavicle -7.95139e-015 2.8625e-014
rhumerus 24.9496 25.6724 -78.1415
rradius 136.09
rwrist -43.8594
rhand -16.6272 -4.04213
rfingers 7.12502
rthumb 9.59502 -33.8036
lclavicle -7.95139e-015 2.8625e-014
lhumerus 7.94556 -40.3712 86.6291
lradius 130.263
lwrist 14.7224
lhand -9.71353 32.9687
lfingers 7.12502
lthumb 16.2595 62.307
rfemur -85.4692 -3.05335 10.2592
rtibia 96.6219
rfoot -24.0049 -3.01871
rtoes -9.57201
lfemur -45.2302 2.82939 7.49133
ltibia 102.806
lfoot -26.8985 -14.7007
ltoes -44.393
1280
root -1.12319 11.0933 4.88564 15.5942 -1.54926 -0.152677
lowerback 22.9323 -1.07418 4.31153
upperback 1.11464 -0.0420633 2.0409
thorax -11.6462 -0.186032 -0.171361
lowerneck -10.4248 4.58754 13.2779
upperneck 15.4938 5.1171 -6.99181
head 6.98515 2.66029 -3.97405
rclavicle 5.56597e-015 1.59028e-015
rhumerus 24.8488 26.4789 -78.5916
rradius 136.043
rwrist -43.5149
rhand -16.4312 -3.76542
rfingers 7.12502
rthumb 9.78411 -33.5181
lclavicle 5.56597e-015 1.59028e-015
lhumerus 10.2613 -40.6504 85.5457
lradius 128.497
lwrist 15.7182
lhand -10.856 33.2084
lfingers 7.12502
lthumb 15.1592 62.6331
rfemur -85.9749 -2.6455 11.3465
rtibia 96.0122
rfoot -23.6084 -1.94254
rtoes -9.27623
lfemur -44.6917 3.11248 7.67723
ltibia 103.079
lfoot -26.8631 -13.7224
ltoes -44.5482
1281
root -1.09257 11.101 4.8918 15.8168 -3.03007 -0.854456
lowerback 22.7608 -1.23039 4.15736
upperback 1.21861 -0.306553 2.01803
thorax -11.4409 -0.298421 -0.0278865
lowerneck -10.1248 5.34172 14.1343
upperneck 15.4082 6.12899 -7.53882
head 7.06139 3.15359 -4.19232
rclavicle -1.90833e-014 4.77083e-015
rhumerus 24.7189 27.2172 -78.9813
rradius 135.966
rwrist -43.2034
rhand -16.2761 -3.53986
rfingers 7.12502
rthumb 9.9338 -33.2855
lclavicle -1.90833e-014 4.77083e-015
lhumerus 12.7908 -40.7532 84.3341
lradius 126.499
lwrist 16.881
lhand -12.2541 33.4779
lfingers 7.12502
lthumb 13.8122 62.9993
rfemur -86.3952 -2.1906 12.5064
rtibia 95.3603
rfoot -23.2147 -0.820469
rtoes -8.9011
lfemur -44.0482 3.43704 7.84936
ltibia 103.346
lfoot -26.7782 -12.6852
ltoes -44.5913
1282
root -1.06005 11.1092 4.9006 16.0432 -4.56907 -1.58677
lowerback 22.6 -1.39639 3.98687
upperback 1.32108 -0.588488 1.97816
thorax -11.2427 -0.419662 0.110121
lowerneck -9.76789 6.10801 15.0379
upperneck 15.3478 7.16384 -8.08172
head 7.15593 3.66276 -4.41205
rclavicle 5.36719e-015 -3.10104e-014
rhumerus 24.4971 27.929 -79.3505
rradius 135.884
rwrist -42.9097
rhand -16.1804 -3.38242
rfingers 7.12502
rthumb 10.0261 -33.1236
lclavicle 5.36719e-015 -3.10104e-014
lhumerus 15.4744 -40.6885 83.016
lradius 124.16
lwrist 17.969
lhand -13.8059 33.6948
lfingers 7.12502
lthumb 12.3162 63.312
rfemur -86.7415 -1.70634 13.7113
rtibia 94.6836
rfoot -22.827 0.352473
rtoes -8.43511
lfemur -43.3312 3.79438 7.99663
ltibia 103.61
lfoot -26.6431 -11.5989
ltoes -44.5297
1283
root -1.02645 11.1177 4.9115 16.2757 -6.13509 -2.3283
lowerback 22.4538 -1.57665 3.79404
upperback 1.40262 -0.893875 1.92244
thorax -11.0758 -0.552515 0.249925
lowerneck -9.31935 6.86965 15.9533
upperneck 15.3296 8.20801 -8.59143
head 7.26491 4.18262 -4.6197
rclavicle 4.47266e-015 -4.47266e-014
rhumerus 24.1572 28.6285 -79.7114
rradius 135.799
rwrist -42.6717
rhand -16.1677 -3.31385
rfingers 7.12502
rthumb 10.0383 -33.0544
lclavicle 4.47266e-015 -4.47266e-014
lhumerus 18.2694 -40.4334 81.629
lradius 121.346
lwrist 18.6809
lhand -15.3144 33.7835
lfingers 7.12502
lthumb 10.8615 63.4826
rfemur -87.0115 -1.20058 14.9226
rtibia 93.9945
rfoot -22.4536 1.55046
rtoes -7.92107
lfemur -42.5668 4.16235 8.10323
ltibia 103.864
lfoot -26.4701 -10.465
ltoes -44.3912
1284
root -0.99307 11.1267 4.92443 16.5002 -7.68574 -3.05707
lowerback 22.33 -1.78435 3.55679
upperback 1.4727 -1.24449 1.85787
thorax -10.9331 -0.705518 0.418837
lowerneck -8.80915 7.63029 16.865
upperneck 15.3578 9.26541 -9.05933
head 7.39425 4.71426 -4.8084
rclavicle -2.46493e-014 1.14301e-014
rhumerus 23.744 29.3251 -80.0572
rradius 135.709
rwrist -42.5245
rhand -16.2026 -3.29957
rfingers 7.12502
rthumb 10.0047 -33.0418
lclavicle -2.46493e-014 1.14301e-014
lhumerus 21.1712 -39.9515 80.1786
lradius 117.943
lwrist 18.7452
lhand -16.6282 33.7134
lfingers 7.12502
lthumb 9.59409 63.475
rfemur -87.1884 -0.689371 16.1028
rtibia 93.3095
rfoot -22.1122 2.75675
rtoes -7.33789
lfemur -41.7659 4.50228 8.15665
ltibia 104.099
lfoot -26.2673 -9.28497
ltoes -44.188
1285
root -0.960442 11.1357 4.9385 16.7251 -9.20926 -3.76281
lowerback 22.2071 -2.01735 3.27491
upperback 1.5335 -1.63904 1.78135
thorax -10.7992 -0.878107 0.612415
lowerneck -8.23709 8.38142 17.7555
upperneck 15.4235 10.3255 -9.46946
head 7.53731 5.25268 -4.97077
rclavicle -1.81391e-014 2.40529e-014
rhumerus 23.2972 30.0088 -80.3812
rradius 135.597
rwrist -42.4648
rhand -16.2619 -3.3015
rfingers 7.12502
rthumb 9.94746 -33.0465
lclavicle -1.81391e-014 2.40529e-014
lhumerus 24.157 -39.2243 78.695
lradius 113.853
lwrist 17.9482
lhand -17.608 33.5215
lfingers 7.12502
lthumb 8.64867 63.3244
rfemur -87.2931 -0.165096 17.2222
rtibia 92.6369
rfoot -21.7984 3.95853
rtoes -6.71188
lfemur -40.96 4.83526 8.1531
ltibia 104.315
lfoot -26.0371 -8.06701
ltoes -43.9403
1286
root -0.929587 11.1455 4.95331 16.9364 -10.6743 -4.43011
lowerback 22.0677 -2.27664 2.92219
upperback 1.60648 -2.08435 1.71188
thorax -10.6372 -1.07173 0.867024
lowerneck -7.60393 9.12291 18.6148
upperneck 15.4833 11.3953 -9.85832
head 7.68114 5.79727 -5.11645
rclavicle -9.36276e-014 1.15295e-014
rhumerus 22.919 30.6615 -80.6231
rradius 135.443
rwrist -42.512
rhand -16.3041 -3.27783
rfingers 7.12502
rthumb 9.90682 -33.0247
lclavicle -9.36276e-014 1.15295e-014
lhumerus 27.2174 -38.2069 77.2359
lradius 109.004
lwrist 16.2138
lhand -18.1658 33.2894
lfingers 7.12502
lthumb 8.11028 63.1137
rfemur -87.3164 0.365657 18.2547
rtibia 91.987
rfoot -21.5168 5.1289
rtoes -6.05233
lfemur -40.1672 5.14545 8.08756
ltibia 104.509
lfoot -25.7704 -6.82696
ltoes -43.6394
1287
root -0.901402 11.156 4.9686 17.1257 -12.0559 -5.04893
lowerback 21.9092 -2.55228 2.51575
upperback 1.69392 -2.56356 1.64125
thorax -10.4419 -1.28022 1.15734
lowerneck -6.92197 9.83164 19.4388
upperneck 15.5225 12.4396 -10.2182
head 7.81593 6.33127 -5.24663
rclavicle -5.88403e-014 1.31198e-014
rhumerus 22.6186 31.2591 -80.7802
rradius 135.249
rwrist -42.5638
rhand -16.3365 -3.2416
rfingers 7.12502
rthumb 9.87553 -32.99
lclavicle -5.88403e-014 1.31198e-014
lhumerus 30.3166 -36.933 75.877
lradius 103.359
lwrist 13.5879
lhand -18.3119 33.0931
lfingers 7.12502
lthumb 7.96936 62.9228
rfemur -87.2629 0.894362 19.1878
rtibia 91.3704
rfoot -21.2644 6.24501
rtoes -5.36089
lfemur -39.3998 5.43776 7.96656
ltibia 104.677
lfoot -25.4653 -5.58532
ltoes -43.2754
1288
root -0.876214 11.1669 4.98378 17.2892 -13.344 -5.60948
lowerback 21.7264 -2.83447 2.06033
upperback 1.79978 -3.06218 1.56931
thorax -10.2044 -1.49779 1.47447
lowerneck -6.20657 10.4979 20.2205
upperneck 15.5225 13.4447 -10.5631
head 7.9347 6.84621 -5.36709
rclavicle 4.13472e-014 -2.94201e-014
rhumerus 22.4334 31.7847 -80.8361
rradius 135.01
rwrist -42.5499
rhand -16.341 -3.17472
rfingers 7.12502
rthumb 9.87114 -32.9233
lclavicle 4.13472e-014 -2.94201e-014
lhumerus 33.4276 -35.4217 74.693
lradius 96.9044
lwrist 10.2273
lhand -18.083 33.0017
lfingers 7.12502
lthumb 8.19024 62.823
rfemur -87.1486 1.41715 20.0094
rtibia 90.7947
rfoot -21.0303 7.28977
rtoes -4.65313
lfemur -38.6722 5.70829 7.78771
ltibia 104.824
lfoot -25.1223 -4.34376
ltoes -42.8532
1289
root -0.854365 11.1785 4.9992 17.4139 -14.5173 -6.10706
lowerback 21.5359 -3.12208 1.58027
upperback 1.91558 -3.5715 1.49318
thorax -9.9437 -1.72202 1.79892
lowerneck -5.4707 11.112 20.9449
upperneck 15.4974 14.3942 -10.881
head 8.03761 7.33426 -5.47433
rclavicle 3.10104e-014 6.36111e-015
rhumerus 22.3398 32.2325 -80.8104
rradius 134.727
rwrist -42.4047
rhand -16.3223 -3.09549
rfingers 7.12502
rthumb 9.88926 -32.8432
lclavicle 3.10104e-014 6.36111e-015
lhumerus 36.5053 -33.7014 73.7562
lradius 89.6647
lwrist 6.38633
lhand -17.5604 33.0219
lfingers 7.12502
lthumb 8.69459 62.8228
rfemur -86.9692 1.9137 20.7228
rtibia 90.2664
rfoot -20.8208 8.24719
rtoes -3.92925
lfemur -37.9759 5.94819 7.56082
ltibia 104.945
lfoot -24.7546 -3.11809
ltoes -42.3934
1290
root -0.835408 11.19 5.01357 17.5056 -15.5717 -6.53257
lowerback 21.3817 -3.40772 1.09178
upperback 2.00607 -4.07629 1.41017
thorax -9.72392 -1.9457 2.11814
lowerneck -4.71622 11.6636 21.6004
upperneck 15.4607 15.2731 -11.1644
head 8.12303 7.78858 -5.56771
rclavicle 2.22639e-014 3.18055e-015
rhumerus 22.2667 32.6237 -80.7396
rradius 134.425
rwrist -42.0442
rhand -16.3032 -3.04924
rfingers 7.12502
rthumb 9.90767 -32.7961
lclavicle 2.22639e-014 3.18055e-015
lhumerus 39.4273 -31.8249 73.1671
lradius 81.787
lwrist 2.30402
lhand -16.8136 33.131
lfingers 7.12502
lthumb 9.41516 62.9008
rfemur -86.7591 2.37068 21.3231
rtibia 89.7881
rfoot -20.6179 9.11299
rtoes -3.21004
lfemur -37.3383 6.17916 7.29027
ltibia 105.049
lfoot -24.3813 -1.93706
ltoes -41.9
1291
root -0.819309 11.2017 5.02624 17.5726 -16.5007 -6.90179
lowerback 21.2819 -3.68795 0.630532
upperback 2.05728 -4.56396 1.3216
thorax -9.57342 -2.16293 2.41284
lowerneck -3.98859 12.1544 22.1781
upperneck 15.4561 16.0724 -11.3934
head 8.20689 8.2047 -5.63939
rclavicle -3.97569e-015 7.95139e-015
rhumerus 22.1811 32.9574 -80.6585
rradius 134.105
rwrist -41.469
rhand -16.2834 -3.02412
rfingers 7.12502
rthumb 9.92679 -32.7701
lclavicle -3.97569e-015 7.95139e-015
lhumerus 42.058 -29.8127 73.0029
lradius 73.569
lwrist -1.82435
lhand -15.8035 33.1865
lfingers 7.12502
lthumb 10.3897 62.9098
rfemur -86.529 2.78815 21.8302
rtibia 89.3526
rfoot -20.4135 9.88811
rtoes -2.48666
lfemur -36.7705 6.42769 7.01713
ltibia 105.135
lfoot -24.0237 -0.840179
ltoes -41.4038
1292
root -0.806091 11.2136 5.03719 17.6129 -17.2891 -7.22086
lowerback 21.2567 -3.96983 0.214508
upperback 2.05964 -5.03958 1.23906
thorax -9.51487 -2.37482 2.69083
lowerneck -3.30831 12.591 22.6619
upperneck 15.503 16.7982 -11.571
head 8.29639 8.58389 -5.687
rclavicle -6.91771e-014 1.59028e-015
rhumerus 22.0742 33.2489 -80.5823
rradius 133.767
rwrist -40.7224
rhand -16.2604 -2.99184
rfingers 7.12502
rthumb 9.94898 -32.7367
lclavicle -6.91771e-014 1.59028e-015
lhumerus 44.2214 -27.6586 73.3478
lradius 65.4681
lwrist -5.82336
lhand -14.5654 32.9797
lfingers 7.12502
lthumb 11.5839 62.6395
rfemur -86.2777 3.14814 22.262
rtibia 88.9547
rfoot -20.2124 10.57
rtoes -1.77268
lfemur -36.2727 6.69494 6.77205
ltibia 105.199
lfoot -23.7038 0.132562
ltoes -40.9306
